<svg width="32" height="243" viewBox="0 0 32 243" fill="none" xmlns="http://www.w3.org/2000/svg">
<path d="M3 88C1.34375 88 0 89.3438 0 91C0 91.9438 0.44375 92.8312 1.2 93.4L14.8 103.6C15.5125 104.131 16.4875 104.131 17.2 103.6L30.8 93.4C31.5562 92.8312 32 91.9438 32 91C32 89.3438 30.6562 88 29 88H3ZM0 95V108C0 110.206 1.79375 112 4 112H28C30.2062 112 32 110.206 32 108V95L18.4 105.2C16.975 106.269 15.025 106.269 13.6 105.2L0 95Z" fill="black"/>
<path d="M5.81818 39C2.60909 39 0 41.6091 0 44.8182V79.7273C0 82.9364 2.60909 85.5455 5.81818 85.5455H26.1818C29.3909 85.5455 32 82.9364 32 79.7273V44.8182C32 41.6091 29.3909 39 26.1818 39H5.81818ZM13.0909 78.2727H18.9091C19.7091 78.2727 20.3636 78.9273 20.3636 79.7273C20.3636 80.5273 19.7091 81.1818 18.9091 81.1818H13.0909C12.2909 81.1818 11.6364 80.5273 11.6364 79.7273C11.6364 78.9273 12.2909 78.2727 13.0909 78.2727Z" fill="black"/>
<path d="M16 18.2857C18.4248 18.2857 20.7504 17.3225 22.465 15.6078C24.1796 13.8932 25.1429 11.5677 25.1429 9.14286C25.1429 6.71802 24.1796 4.3925 22.465 2.67788C20.7504 0.963263 18.4248 0 16 0C13.5752 0 11.2496 0.963263 9.53502 2.67788C7.82041 4.3925 6.85714 6.71802 6.85714 9.14286C6.85714 11.5677 7.82041 13.8932 9.53502 15.6078C11.2496 17.3225 13.5752 18.2857 16 18.2857ZM12.7357 21.7143C5.7 21.7143 0 27.4143 0 34.45C0 35.6214 0.95 36.5714 2.12143 36.5714H29.8786C31.05 36.5714 32 35.6214 32 34.45C32 27.4143 26.3 21.7143 19.2643 21.7143H12.7357Z" fill="black"/>
<mask id="mask0_9_4" style="mask-type:luminance" maskUnits="userSpaceOnUse" x="0" y="114" width="32" height="37">
<path d="M32 114H0V150.571H32V114Z" fill="white"/>
</mask>
<g mask="url(#mask0_9_4)">
<path d="M6.85714 116.286V118.571H3.42857C1.53571 118.571 0 120.107 0 122V125.429H32V122C32 120.107 30.4643 118.571 28.5714 118.571H25.1429V116.286C25.1429 115.021 24.1214 114 22.8571 114C21.5929 114 20.5714 115.021 20.5714 116.286V118.571H11.4286V116.286C11.4286 115.021 10.4071 114 9.14286 114C7.87857 114 6.85714 115.021 6.85714 116.286ZM32 127.714H0V147.143C0 149.036 1.53571 150.571 3.42857 150.571H28.5714C30.4643 150.571 32 149.036 32 147.143V127.714Z" fill="black"/>
</g>
<path d="M17.975 194.6C22.25 189.25 32 176.283 32 169C32 160.167 24.8333 153 16 153C7.16667 153 0 160.167 0 169C0 176.283 9.75 189.25 14.025 194.6C15.05 195.875 16.95 195.875 17.975 194.6ZM16 163.667C17.4145 163.667 18.771 164.229 19.7712 165.229C20.7714 166.229 21.3333 167.586 21.3333 169C21.3333 170.414 20.7714 171.771 19.7712 172.771C18.771 173.771 17.4145 174.333 16 174.333C14.5855 174.333 13.229 173.771 12.2288 172.771C11.2286 171.771 10.6667 170.414 10.6667 169C10.6667 167.586 11.2286 166.229 12.2288 165.229C13.229 164.229 14.5855 163.667 16 163.667Z" fill="black"/>
<path d="M0 200.32V237.4C0 238.62 0.99 239.6 2.2 239.6C2.83 239.6 3.44 239.33 3.86 238.85L12.12 229.4L17.93 241.03C18.72 242.61 20.64 243.25 22.22 242.46C23.8 241.67 24.44 239.75 23.65 238.17L17.98 226.8H29.79C31.01 226.8 32 225.81 32 224.59C32 223.96 31.73 223.36 31.26 222.94L3.86 198.59C3.43 198.21 2.89 198 2.32 198C1.04 198 0 199.04 0 200.32Z" fill="black"/>
</svg>
